<svg viewBox="0 0 20 20" fill="none" xmlns="http://www.w3.org/2000/svg">
	<path d="M10.0181 18.9816C7.5014 18.9816 5.3724 18.1106 3.63107 16.3686C1.88973 14.6266 1.01873 12.4976 1.01807 9.98161C1.01807 7.68161 1.76807 5.68561 3.26807 3.99361C4.76807 2.30161 6.68473 1.31428 9.01807 1.03161C9.23473 0.998275 9.4264 1.02761 9.59307 1.11961C9.75973 1.21161 9.89307 1.33228 9.99307 1.48161C10.0931 1.63094 10.1474 1.80594 10.1561 2.00661C10.1647 2.20728 10.1021 2.39894 9.96807 2.58161C9.68473 3.01494 9.47207 3.47327 9.33007 3.95661C9.18807 4.43994 9.1174 4.94828 9.11807 5.48161C9.11807 6.98161 9.64307 8.25661 10.6931 9.30661C11.7431 10.3566 13.0181 10.8816 14.5181 10.8816C15.0347 10.8816 15.5474 10.8066 16.0561 10.6566C16.5647 10.5066 17.0187 10.2983 17.4181 10.0316C17.6014 9.91494 17.7891 9.86094 17.9811 9.86961C18.1731 9.87827 18.3437 9.92394 18.4931 10.0066C18.6597 10.0899 18.7891 10.2149 18.8811 10.3816C18.9731 10.5483 19.0021 10.7483 18.9681 10.9816C18.7347 13.2816 17.7557 15.1899 16.0311 16.7066C14.3064 18.2233 12.3021 18.9816 10.0181 18.9816Z" stroke="currentColor" stroke-width="1.5"/>
</svg>