<svg width="0" height="0" class="hidden">
	<symbol xmlns="http://www.w3.org/2000/svg" viewBox="0 0 20 20" id="dark">
		<path d="M10.0181 18.9816C7.5014 18.9816 5.3724 18.1106 3.63107 16.3686C1.88973 14.6266 1.01873 12.4976 1.01807 9.98161C1.01807 7.68161 1.76807 5.68561 3.26807 3.99361C4.76807 2.30161 6.68473 1.31428 9.01807 1.03161C9.23473 0.998275 9.4264 1.02761 9.59307 1.11961C9.75973 1.21161 9.89307 1.33228 9.99307 1.48161C10.0931 1.63094 10.1474 1.80594 10.1561 2.00661C10.1647 2.20728 10.1021 2.39894 9.96807 2.58161C9.68473 3.01494 9.47207 3.47327 9.33007 3.95661C9.18807 4.43994 9.1174 4.94828 9.11807 5.48161C9.11807 6.98161 9.64307 8.25661 10.6931 9.30661C11.7431 10.3566 13.0181 10.8816 14.5181 10.8816C15.0347 10.8816 15.5474 10.8066 16.0561 10.6566C16.5647 10.5066 17.0187 10.2983 17.4181 10.0316C17.6014 9.91494 17.7891 9.86094 17.9811 9.86961C18.1731 9.87827 18.3437 9.92394 18.4931 10.0066C18.6597 10.0899 18.7891 10.2149 18.8811 10.3816C18.9731 10.5483 19.0021 10.7483 18.9681 10.9816C18.7347 13.2816 17.7557 15.1899 16.0311 16.7066C14.3064 18.2233 12.3021 18.9816 10.0181 18.9816Z" stroke="currentColor" stroke-width="1.5"></path>
	</symbol>
	<symbol xmlns="http://www.w3.org/2000/svg" viewBox="0 0 20 20" id="light">
		<path d="M19 9.199H18.02C17.467 9.199 17.02 9.558 17.02 10C17.02 10.441 17.467 10.799 18.02 10.799H19C19.552 10.799 20 10.442 20 10C20 9.559 19.551 9.199 19 9.199ZM10 4.5C9.2771 4.49776 8.56089 4.63848 7.89259 4.91409C7.22428 5.1897 6.61708 5.59474 6.10591 6.10591C5.59474 6.61708 5.1897 7.22428 4.91409 7.89259C4.63848 8.56089 4.49776 9.2771 4.5 10C4.5 13.051 6.949 15.5 10 15.5C13.05 15.5 15.5 13.051 15.5 10C15.5 6.949 13.049 4.5 10 4.5ZM10 14C7.789 14 6 12.209 6 10C6 7.789 7.789 6 10 6C11.0609 6 12.0783 6.42143 12.8284 7.17157C13.5786 7.92172 14 8.93913 14 10C14 11.0609 13.5786 12.0783 12.8284 12.8284C12.0783 13.5786 11.0609 14 10 14ZM3 10C3 9.559 2.551 9.199 2 9.199H1C0.447 9.199 0 9.558 0 10C0 10.441 0.447 10.799 1 10.799H2C2.551 10.799 3 10.441 3 10ZM10 3C10.441 3 10.799 2.553 10.799 2V1C10.799 0.447 10.441 0 10 0C9.559 0 9.199 0.447 9.199 1V2C9.199 2.553 9.558 3 10 3ZM10 17C9.558 17 9.199 17.447 9.199 18V19C9.199 19.553 9.558 20 10 20C10.441 20 10.799 19.553 10.799 19V18C10.799 17.447 10.441 17 10 17ZM17.365 3.766C17.756 3.375 17.819 2.805 17.507 2.493C17.195 2.181 16.624 2.245 16.235 2.636L15.535 3.335C15.144 3.726 15.081 4.296 15.393 4.608C15.705 4.92 16.276 4.856 16.666 4.465L17.365 3.766ZM3.334 15.533L2.634 16.234C2.243 16.625 2.18 17.193 2.492 17.505C2.804 17.817 3.375 17.755 3.764 17.364L4.464 16.665C4.855 16.274 4.918 15.704 4.606 15.391C4.294 15.078 3.723 15.144 3.334 15.533ZM3.765 2.635C3.375 2.244 2.804 2.18 2.492 2.492C2.18 2.804 2.244 3.375 2.633 3.766L3.333 4.465C3.724 4.856 4.293 4.92 4.605 4.608C4.917 4.296 4.854 3.725 4.464 3.335L3.765 2.635ZM15.534 16.666L16.234 17.365C16.625 17.756 17.194 17.818 17.506 17.508C17.818 17.196 17.755 16.625 17.364 16.235L16.665 15.536C16.274 15.145 15.704 15.081 15.391 15.393C15.078 15.705 15.143 16.275 15.534 16.666Z" fill="currentColor"></path>
	</symbol>
	<symbol xmlns="http://www.w3.org/2000/svg" viewBox="0 0 26 4" id="minus">
		<rect y="4" width="4" height="26" transform="rotate(-90 0 4)" fill="currentColor"></rect>
	</symbol>
	<symbol xmlns="http://www.w3.org/2000/svg" viewBox="0 0 26 26" id="plus">
		<rect x="10.8776" width="4.2449" height="26" fill="currentColor"></rect>
		<rect y="15.1224" width="4.2449" height="26" transform="rotate(-90 0 15.1224)" fill="currentColor"></rect>
	</symbol>
	<symbol xmlns="http://www.w3.org/2000/svg" version="1.1" xmlns:xlink="http://www.w3.org/1999/xlink" x="0" y="0" xml:space="preserve" viewBox="0 0 24 24" id="arrow">
		<g>
			<path d="M12 16a1 1 0 0 1-.71-.29l-6-6a1 1 0 0 1 1.42-1.42l5.29 5.3 5.29-5.29a1 1 0 0 1 1.41 1.41l-6 6a1 1 0 0 1-.7.29z" fill="currentColor" opacity="1" ></path>
		</g>
	</symbol>
</svg>